<?xml version="1.0" standalone="no"?>
<!DOCTYPE svg PUBLIC "-//W3C//DTD SVG 20010904//EN"
 "http://www.w3.org/TR/2001/REC-SVG-20010904/DTD/svg10.dtd">
<svg version="1.0" xmlns="http://www.w3.org/2000/svg"
 width="225.000000pt" height="225.000000pt" viewBox="0 0 225.000000 225.000000"
 preserveAspectRatio="xMidYMid meet">
<metadata>
Created by potrace 1.11, written by Peter Selinger 2001-2013
</metadata>
<g transform="translate(0.000000,225.000000) scale(0.100000,-0.100000)"
fill="#000000" stroke="none">
<path d="M890 2235 c-412 -92 -730 -388 -857 -800 -26 -87 -27 -98 -27 -310 0
-211 1 -223 27 -310 108 -353 347 -616 682 -748 147 -58 225 -69 448 -65 173
4 201 7 282 32 191 58 335 145 481 290 145 145 232 289 290 482 25 80 28 108
32 281 4 223 -7 301 -65 448 -132 334 -399 577 -748 681 -82 25 -108 27 -285
30 -143 3 -212 0 -260 -11z m373 -461 c246 -56 431 -240 482 -479 36 -171 9
-318 -88 -473 l-39 -63 88 -117 c49 -64 89 -120 89 -124 0 -4 -38 -37 -85 -72
-65 -50 -87 -63 -96 -53 -6 7 -80 102 -164 212 l-153 199 24 15 c55 34 127
119 150 177 20 49 23 77 24 169 0 103 -2 114 -32 177 -88 186 -295 263 -499
187 -81 -30 -172 -121 -204 -204 -20 -49 -24 -79 -24 -166 -1 -102 0 -107 37
-182 35 -72 52 -91 137 -156 l25 -19 -65 -95 -65 -95 -40 21 c-22 12 -71 54
-110 92 -189 189 -236 468 -119 713 41 84 141 197 221 248 144 93 336 126 506
88z m-84 -992 c19 -10 43 -34 53 -53 80 -150 -144 -282 -232 -136 -73 118 57
254 179 189z"/>
</g>
</svg>
